<svg viewBox="0 0 980 510" xmlns="http://www.w3.org/2000/svg" font-family="Menlo, Consolas, 'Courier New', monospace">
<rect x="0" y="0" width="980" height="510" rx="14" fill="#0F172A"/>
<rect x="0" y="0" width="980" height="56" rx="14" fill="#111827"/>
<rect x="0" y="42" width="980" height="14" fill="#111827"/>
<circle cx="26" cy="28" r="6" fill="#EF4444"/>
<circle cx="46" cy="28" r="6" fill="#F59E0B"/>
<circle cx="66" cy="28" r="6" fill="#22C55E"/>
<text x="490.0" y="33" text-anchor="middle" fill="#E2E8F0" font-size="15" font-weight="600">ms-frontend — estructura de directorios</text>
<text x="34" y="78" fill="#64748B" font-size="13">Angular 19 · Standalone Components · PrimeNG · Tailwind</text>
<text x="34" y="100" fill="#1E293B" font-size="15" font-weight="600">🗂 ms-frontend/</text>
<text x="38" y="124" fill="#334155" font-size="15">└─</text>
<text x="56" y="124" fill="#5B8DEF" font-size="15" font-weight="600">📁 src/app/</text>
<text x="60" y="148" fill="#334155" font-size="15">└─</text>
<text x="78" y="148" fill="#5B8DEF" font-size="15" font-weight="600">📁 core/</text>
<text x="82" y="172" fill="#334155" font-size="15">└─</text>
<text x="100" y="172" fill="#5B8DEF" font-size="15" font-weight="600">📁 auth/  config/  interceptors/</text>
<text x="82" y="196" fill="#334155" font-size="15">└─</text>
<text x="100" y="196" fill="#5B8DEF" font-size="15" font-weight="600">📁 models/  services/  theme/  tokens/  utils/</text>
<text x="60" y="220" fill="#334155" font-size="15">└─</text>
<text x="78" y="220" fill="#5B8DEF" font-size="15" font-weight="600">📁 features/</text>
<text x="82" y="244" fill="#334155" font-size="15">└─</text>
<text x="100" y="244" fill="#5B8DEF" font-size="15" font-weight="600">📁 home/  login/  requests/</text>
<text x="82" y="268" fill="#334155" font-size="15">└─</text>
<text x="100" y="268" fill="#5B8DEF" font-size="15" font-weight="600">📁 scoring/  simulate/  simulations/</text>
<text x="82" y="292" fill="#334155" font-size="15">└─</text>
<text x="100" y="292" fill="#5B8DEF" font-size="15" font-weight="600">📁 reports/</text>
<text x="60" y="316" fill="#334155" font-size="15">└─</text>
<text x="78" y="316" fill="#5B8DEF" font-size="15" font-weight="600">📁 layout/</text>
<text x="82" y="340" fill="#334155" font-size="15">└─</text>
<text x="100" y="340" fill="#5B8DEF" font-size="15" font-weight="600">📁 main-layout/  sidebar/  breadcrumb/</text>
<text x="60" y="364" fill="#334155" font-size="15">└─</text>
<text x="78" y="364" fill="#5B8DEF" font-size="15" font-weight="600">📁 shared/</text>
<text x="82" y="388" fill="#334155" font-size="15">└─</text>
<text x="100" y="388" fill="#5B8DEF" font-size="15" font-weight="600">📁 models/  pipes/  ui/</text>
<text x="38" y="412" fill="#334155" font-size="15">└─</text>
<text x="56" y="412" fill="#5B8DEF" font-size="15" font-weight="600">📁 src/environments/</text>
<text x="38" y="436" fill="#334155" font-size="15">└─</text>
<text x="56" y="436" fill="#94A3B8" font-size="15" font-weight="400">📄 angular.json  package.json</text>
<text x="38" y="460" fill="#334155" font-size="15">└─</text>
<text x="56" y="460" fill="#94A3B8" font-size="15" font-weight="400">📄 tailwind.config  (Tailwind + PrimeNG theme)</text>
</svg>